# xmcd
#
# Track frame offsets:
#	150
#	20162
#	35930
#	54390
#	72475
#	89790
#	106760
#	123040
#	138132
#	159992
#	174037
#	189595
#
# Disc length: 2802 seconds
#
# Revision: 1
# Processed by: cddbd v1.5.2PL0 Copyright (c) Steve Scherf et al.
# Submitted via: EasyCDDAExtractor 15.3.0.1
#
DISCID=9e0af00c
DTITLE=Daniela Romo - De Mil Colores
DYEAR=1992
DGENRE=Latin
TTITLE0=De Mil Colores
TTITLE1=En El Espacio Del Placer
TTITLE2=Para Que Te Quedes Conmigo
TTITLE3=Lejos
TTITLE4=Yo No Se Vivir Sin Ti
TTITLE5=Atame A Tu Vida
TTITLE6=Que Vengan Los Bomberos
TTITLE7=El Dia Que Te Fuiste
TTITLE8=Anestesia
TTITLE9=A Veces
TTITLE10=Estoy Pensando En Cambiarte
TTITLE11=Amor A Contrapunto
EXTD=
EXTT0=
EXTT1=
EXTT2=
EXTT3=
EXTT4=
EXTT5=
EXTT6=
EXTT7=
EXTT8=
EXTT9=
EXTT10=
EXTT11=
PLAYORDER=
